<mxfile host="app.diagrams.net" modified="2023-08-01T02:40:25.264Z" agent="Mozilla/5.0 (Windows NT 10.0; Win64; x64) AppleWebKit/537.36 (KHTML, like Gecko) Chrome/115.0.0.0 Safari/537.36 Edg/115.0.1901.183" etag="CTR-D-DXhvyWFcFtDU7W" version="21.6.6" type="device">
  <diagram name="第 1 页" id="vkjvNKrcprwjGzqFDWzI">
    <mxGraphModel dx="1154" dy="661" grid="1" gridSize="10" guides="1" tooltips="1" connect="1" arrows="1" fold="1" page="1" pageScale="1" pageWidth="827" pageHeight="1169" math="0" shadow="0">
      <root>
        <mxCell id="0" />
        <mxCell id="1" parent="0" />
        <mxCell id="HXAehdw_XhQiWvSysFub-15" value="modeling" style="whiteSpace=wrap;html=1;aspect=fixed;fillColor=#647687;fontColor=#ffffff;strokeColor=#314354;" parent="1" vertex="1">
          <mxGeometry x="350" y="240" width="420" height="420" as="geometry" />
        </mxCell>
        <mxCell id="HXAehdw_XhQiWvSysFub-3" style="edgeStyle=orthogonalEdgeStyle;rounded=0;orthogonalLoop=1;jettySize=auto;html=1;entryX=0;entryY=0.5;entryDx=0;entryDy=0;" parent="1" source="HXAehdw_XhQiWvSysFub-1" target="HXAehdw_XhQiWvSysFub-2" edge="1">
          <mxGeometry relative="1" as="geometry" />
        </mxCell>
        <mxCell id="HXAehdw_XhQiWvSysFub-1" value="鼠标事件" style="rounded=0;whiteSpace=wrap;html=1;fillColor=#d5e8d4;strokeColor=#82b366;" parent="1" vertex="1">
          <mxGeometry x="200" y="420" width="120" height="60" as="geometry" />
        </mxCell>
        <mxCell id="HXAehdw_XhQiWvSysFub-6" value="" style="edgeStyle=orthogonalEdgeStyle;rounded=0;orthogonalLoop=1;jettySize=auto;html=1;" parent="1" source="HXAehdw_XhQiWvSysFub-2" target="HXAehdw_XhQiWvSysFub-5" edge="1">
          <mxGeometry relative="1" as="geometry" />
        </mxCell>
        <mxCell id="HXAehdw_XhQiWvSysFub-8" value="" style="edgeStyle=orthogonalEdgeStyle;rounded=0;orthogonalLoop=1;jettySize=auto;html=1;" parent="1" source="HXAehdw_XhQiWvSysFub-2" target="HXAehdw_XhQiWvSysFub-7" edge="1">
          <mxGeometry relative="1" as="geometry" />
        </mxCell>
        <mxCell id="HXAehdw_XhQiWvSysFub-10" value="" style="edgeStyle=orthogonalEdgeStyle;rounded=0;orthogonalLoop=1;jettySize=auto;html=1;" parent="1" source="HXAehdw_XhQiWvSysFub-2" target="HXAehdw_XhQiWvSysFub-9" edge="1">
          <mxGeometry relative="1" as="geometry" />
        </mxCell>
        <mxCell id="HXAehdw_XhQiWvSysFub-2" value="事件处理函数&lt;br&gt;状态机" style="rounded=0;whiteSpace=wrap;html=1;fillColor=#d5e8d4;strokeColor=#82b366;" parent="1" vertex="1">
          <mxGeometry x="390" y="420" width="120" height="60" as="geometry" />
        </mxCell>
        <mxCell id="HXAehdw_XhQiWvSysFub-5" value="Geometry" style="whiteSpace=wrap;html=1;rounded=0;fillColor=#fff2cc;strokeColor=#d6b656;" parent="1" vertex="1">
          <mxGeometry x="390" y="280" width="120" height="60" as="geometry" />
        </mxCell>
        <mxCell id="HXAehdw_XhQiWvSysFub-14" value="" style="edgeStyle=orthogonalEdgeStyle;rounded=0;orthogonalLoop=1;jettySize=auto;html=1;" parent="1" source="HXAehdw_XhQiWvSysFub-7" target="HXAehdw_XhQiWvSysFub-13" edge="1">
          <mxGeometry relative="1" as="geometry" />
        </mxCell>
        <mxCell id="HXAehdw_XhQiWvSysFub-7" value="Graphics" style="whiteSpace=wrap;html=1;rounded=0;fillColor=#fff2cc;strokeColor=#d6b656;" parent="1" vertex="1">
          <mxGeometry x="390" y="560" width="120" height="60" as="geometry" />
        </mxCell>
        <mxCell id="HXAehdw_XhQiWvSysFub-12" value="" style="edgeStyle=orthogonalEdgeStyle;rounded=0;orthogonalLoop=1;jettySize=auto;html=1;" parent="1" source="HXAehdw_XhQiWvSysFub-9" target="HXAehdw_XhQiWvSysFub-11" edge="1">
          <mxGeometry relative="1" as="geometry" />
        </mxCell>
        <mxCell id="HXAehdw_XhQiWvSysFub-9" value="datamodel" style="whiteSpace=wrap;html=1;rounded=0;fillColor=#dae8fc;strokeColor=#6c8ebf;" parent="1" vertex="1">
          <mxGeometry x="590" y="420" width="120" height="60" as="geometry" />
        </mxCell>
        <mxCell id="HXAehdw_XhQiWvSysFub-11" value="Database" style="whiteSpace=wrap;html=1;rounded=0;fillColor=#d80073;fontColor=#ffffff;strokeColor=#A50040;" parent="1" vertex="1">
          <mxGeometry x="790" y="420" width="120" height="60" as="geometry" />
        </mxCell>
        <mxCell id="HXAehdw_XhQiWvSysFub-13" value="visualmodel" style="whiteSpace=wrap;html=1;rounded=0;fillColor=#dae8fc;strokeColor=#6c8ebf;" parent="1" vertex="1">
          <mxGeometry x="590" y="560" width="120" height="60" as="geometry" />
        </mxCell>
      </root>
    </mxGraphModel>
  </diagram>
</mxfile>
